<mxfile host="app.diagrams.net" modified="2024-03-12T21:57:57.764Z" agent="Mozilla/5.0 (Windows NT 10.0; Win64; x64) AppleWebKit/537.36 (KHTML, like Gecko) Chrome/122.0.0.0 Safari/537.36" etag="sxvxa7yMOQnHG53x4cZz" version="24.0.5" type="github">
  <diagram name="Página-1" id="S-STOfgmqo0YJhuw0_l0">
    <mxGraphModel dx="880" dy="460" grid="1" gridSize="10" guides="1" tooltips="1" connect="1" arrows="1" fold="1" page="1" pageScale="1" pageWidth="827" pageHeight="1169" math="0" shadow="0">
      <root>
        <mxCell id="0" />
        <mxCell id="1" parent="0" />
        <mxCell id="RQRy1kZiqhIdKbyIFsjx-12" value="" style="edgeStyle=orthogonalEdgeStyle;rounded=0;orthogonalLoop=1;jettySize=auto;html=1;" edge="1" parent="1" source="RQRy1kZiqhIdKbyIFsjx-1" target="RQRy1kZiqhIdKbyIFsjx-7">
          <mxGeometry relative="1" as="geometry" />
        </mxCell>
        <mxCell id="RQRy1kZiqhIdKbyIFsjx-1" value="INICIO" style="rounded=0;whiteSpace=wrap;html=1;" vertex="1" parent="1">
          <mxGeometry x="320" y="50" width="120" height="60" as="geometry" />
        </mxCell>
        <mxCell id="RQRy1kZiqhIdKbyIFsjx-19" value="" style="edgeStyle=orthogonalEdgeStyle;rounded=0;orthogonalLoop=1;jettySize=auto;html=1;" edge="1" parent="1" source="RQRy1kZiqhIdKbyIFsjx-7" target="RQRy1kZiqhIdKbyIFsjx-18">
          <mxGeometry relative="1" as="geometry" />
        </mxCell>
        <mxCell id="RQRy1kZiqhIdKbyIFsjx-7" value="ESCREVA DOIS NUMEROS N1,N2" style="rounded=1;whiteSpace=wrap;html=1;" vertex="1" parent="1">
          <mxGeometry x="320" y="180" width="120" height="60" as="geometry" />
        </mxCell>
        <mxCell id="RQRy1kZiqhIdKbyIFsjx-37" value="" style="edgeStyle=orthogonalEdgeStyle;rounded=0;orthogonalLoop=1;jettySize=auto;html=1;" edge="1" parent="1" source="RQRy1kZiqhIdKbyIFsjx-18" target="RQRy1kZiqhIdKbyIFsjx-36">
          <mxGeometry relative="1" as="geometry" />
        </mxCell>
        <mxCell id="RQRy1kZiqhIdKbyIFsjx-18" value="SENDO N1,N2 &amp;gt;= 0&amp;nbsp;" style="shape=document;whiteSpace=wrap;html=1;boundedLbl=1;rounded=1;size=0.25;" vertex="1" parent="1">
          <mxGeometry x="320" y="300" width="120" height="80" as="geometry" />
        </mxCell>
        <mxCell id="RQRy1kZiqhIdKbyIFsjx-24" value="" style="edgeStyle=orthogonalEdgeStyle;rounded=0;orthogonalLoop=1;jettySize=auto;html=1;exitX=0.5;exitY=1;exitDx=0;exitDy=0;" edge="1" parent="1" source="RQRy1kZiqhIdKbyIFsjx-36" target="RQRy1kZiqhIdKbyIFsjx-23">
          <mxGeometry relative="1" as="geometry">
            <mxPoint x="380" y="540" as="sourcePoint" />
          </mxGeometry>
        </mxCell>
        <mxCell id="RQRy1kZiqhIdKbyIFsjx-26" value="" style="edgeStyle=orthogonalEdgeStyle;rounded=0;orthogonalLoop=1;jettySize=auto;html=1;" edge="1" parent="1" source="RQRy1kZiqhIdKbyIFsjx-23" target="RQRy1kZiqhIdKbyIFsjx-25">
          <mxGeometry relative="1" as="geometry" />
        </mxCell>
        <mxCell id="RQRy1kZiqhIdKbyIFsjx-30" value="SIM" style="edgeLabel;html=1;align=center;verticalAlign=middle;resizable=0;points=[];" vertex="1" connectable="0" parent="RQRy1kZiqhIdKbyIFsjx-26">
          <mxGeometry x="-0.4" y="-2" relative="1" as="geometry">
            <mxPoint as="offset" />
          </mxGeometry>
        </mxCell>
        <mxCell id="RQRy1kZiqhIdKbyIFsjx-28" value="" style="edgeStyle=orthogonalEdgeStyle;rounded=0;orthogonalLoop=1;jettySize=auto;html=1;" edge="1" parent="1" source="RQRy1kZiqhIdKbyIFsjx-23" target="RQRy1kZiqhIdKbyIFsjx-27">
          <mxGeometry relative="1" as="geometry" />
        </mxCell>
        <mxCell id="RQRy1kZiqhIdKbyIFsjx-29" value="NÃO" style="edgeLabel;html=1;align=center;verticalAlign=middle;resizable=0;points=[];" vertex="1" connectable="0" parent="RQRy1kZiqhIdKbyIFsjx-28">
          <mxGeometry x="-0.344" y="1" relative="1" as="geometry">
            <mxPoint as="offset" />
          </mxGeometry>
        </mxCell>
        <mxCell id="RQRy1kZiqhIdKbyIFsjx-23" value="SE M &amp;gt;= 7" style="shape=document;whiteSpace=wrap;html=1;boundedLbl=1;rounded=1;" vertex="1" parent="1">
          <mxGeometry x="320" y="610" width="120" height="80" as="geometry" />
        </mxCell>
        <mxCell id="RQRy1kZiqhIdKbyIFsjx-25" value="APROVADO&amp;nbsp;" style="whiteSpace=wrap;html=1;rounded=1;" vertex="1" parent="1">
          <mxGeometry x="130" y="740" width="120" height="60" as="geometry" />
        </mxCell>
        <mxCell id="RQRy1kZiqhIdKbyIFsjx-27" value="REPROVADO&lt;div&gt;&lt;br&gt;&lt;/div&gt;" style="whiteSpace=wrap;html=1;rounded=1;" vertex="1" parent="1">
          <mxGeometry x="540" y="740" width="120" height="60" as="geometry" />
        </mxCell>
        <mxCell id="RQRy1kZiqhIdKbyIFsjx-31" value="FIM" style="ellipse;whiteSpace=wrap;html=1;" vertex="1" parent="1">
          <mxGeometry x="330" y="840" width="120" height="80" as="geometry" />
        </mxCell>
        <mxCell id="RQRy1kZiqhIdKbyIFsjx-32" value="" style="endArrow=classic;html=1;rounded=0;exitX=0.558;exitY=1.05;exitDx=0;exitDy=0;exitPerimeter=0;entryX=0;entryY=0.5;entryDx=0;entryDy=0;" edge="1" parent="1" source="RQRy1kZiqhIdKbyIFsjx-25" target="RQRy1kZiqhIdKbyIFsjx-31">
          <mxGeometry width="50" height="50" relative="1" as="geometry">
            <mxPoint x="210" y="880" as="sourcePoint" />
            <mxPoint x="260" y="830" as="targetPoint" />
            <Array as="points">
              <mxPoint x="200" y="880" />
            </Array>
          </mxGeometry>
        </mxCell>
        <mxCell id="RQRy1kZiqhIdKbyIFsjx-33" value="" style="endArrow=classic;html=1;rounded=0;exitX=0.5;exitY=1;exitDx=0;exitDy=0;entryX=1;entryY=0.5;entryDx=0;entryDy=0;" edge="1" parent="1" source="RQRy1kZiqhIdKbyIFsjx-27" target="RQRy1kZiqhIdKbyIFsjx-31">
          <mxGeometry width="50" height="50" relative="1" as="geometry">
            <mxPoint x="530" y="890" as="sourcePoint" />
            <mxPoint x="580" y="840" as="targetPoint" />
            <Array as="points">
              <mxPoint x="600" y="880" />
            </Array>
          </mxGeometry>
        </mxCell>
        <mxCell id="RQRy1kZiqhIdKbyIFsjx-36" value="N1 + N2/ 2 = M" style="rhombus;whiteSpace=wrap;html=1;" vertex="1" parent="1">
          <mxGeometry x="320" y="420" width="120" height="110" as="geometry" />
        </mxCell>
      </root>
    </mxGraphModel>
  </diagram>
</mxfile>
